<svg id="insta-icon" xmlns="http://www.w3.org/2000/svg" width="19.002" height="19.002" viewBox="0 0 19.002 19.002">
  <path id="Path_75" data-name="Path 75" d="M13.579,5.791c2.533,0,2.837.01,3.839.055a5.258,5.258,0,0,1,1.764.327,3.146,3.146,0,0,1,1.8,1.8,5.258,5.258,0,0,1,.327,1.764c.046,1,.055,1.3.055,3.839s-.009,2.837-.055,3.839a5.258,5.258,0,0,1-.327,1.764,3.146,3.146,0,0,1-1.8,1.8,5.258,5.258,0,0,1-1.764.327c-1,.046-1.3.055-3.839.055s-2.837-.01-3.839-.055a5.258,5.258,0,0,1-1.766-.325,3.146,3.146,0,0,1-1.8-1.8,5.258,5.258,0,0,1-.327-1.764c-.046-1-.055-1.3-.055-3.839s.01-2.837.055-3.839a5.258,5.258,0,0,1,.328-1.766,3.146,3.146,0,0,1,1.8-1.8,5.258,5.258,0,0,1,1.764-.327c1-.046,1.3-.055,3.839-.055m0-1.712c-2.58,0-2.9.011-3.917.057a6.973,6.973,0,0,0-2.306.442A4.858,4.858,0,0,0,4.575,7.357a6.973,6.973,0,0,0-.442,2.306C4.087,10.676,4.076,11,4.076,13.58s.011,2.9.057,3.917A6.973,6.973,0,0,0,4.575,19.8a4.858,4.858,0,0,0,2.779,2.779,6.973,6.973,0,0,0,2.306.442c1.013.046,1.337.057,3.917.057s2.9-.011,3.917-.057a6.973,6.973,0,0,0,2.306-.442A4.858,4.858,0,0,0,22.579,19.8a6.973,6.973,0,0,0,.442-2.306c.046-1.013.057-1.337.057-3.917s-.011-2.9-.057-3.917a6.973,6.973,0,0,0-.442-2.306A4.858,4.858,0,0,0,19.8,4.578a6.973,6.973,0,0,0-2.306-.442C16.481,4.09,16.157,4.079,13.577,4.079Z" transform="translate(-4.076 -4.079)"/>
  <path id="Path_76" data-name="Path 76" d="M131.494,126.635a4.859,4.859,0,1,0,4.859,4.859A4.859,4.859,0,0,0,131.494,126.635Zm0,8.013a3.154,3.154,0,1,1,3.154-3.154A3.154,3.154,0,0,1,131.494,134.648Z" transform="translate(-121.991 -121.993)"/>
  <ellipse id="Ellipse_1" data-name="Ellipse 1" cx="1.145" cy="1.145" rx="1.145" ry="1.145" transform="translate(13.426 3.287)"/>
</svg>
